solid farfield
 facet normal -1 -0 -0
  outer loop
   vertex -2.2 2 2
   vertex -2.2 2 -2
   vertex -2.2 -2 2
  endloop
 endfacet
 facet normal -1 0 0
  outer loop
   vertex -2.2 2 -2
   vertex -2.2 -2 -2
   vertex -2.2 -2 2
  endloop
 endfacet
 facet normal 1 -0 0
  outer loop
   vertex 1.8 -2 2
   vertex 1.8 2 -2
   vertex 1.8 2 2
  endloop
 endfacet
 facet normal 1 0 0
  outer loop
   vertex 1.8 -2 2
   vertex 1.8 -2 -2
   vertex 1.8 2 -2
  endloop
 endfacet
 facet normal 0 -1 0
  outer loop
   vertex -2.2 -2 -2
   vertex 1.8 -2 -2
   vertex 1.8 -2 2
  endloop
 endfacet
 facet normal 0 -1 0
  outer loop
   vertex -2.2 -2 2
   vertex -2.2 -2 -2
   vertex 1.8 -2 2
  endloop
 endfacet
 facet normal 0 1 0
  outer loop
   vertex 1.8 2 2
   vertex 1.8 2 -2
   vertex -2.2 2 -2
  endloop
 endfacet
 facet normal 0 1 0
  outer loop
   vertex 1.8 2 2
   vertex -2.2 2 -2
   vertex -2.2 2 2
  endloop
 endfacet
 facet normal 0 0 -1
  outer loop
   vertex -2.2 -2 -2
   vertex -2.2 2 -2
   vertex 1.8 2 -2
  endloop
 endfacet
 facet normal 0 0 -1
  outer loop
   vertex 1.8 -2 -2
   vertex -2.2 -2 -2
   vertex 1.8 2 -2
  endloop
 endfacet
 facet normal 0 0 1
  outer loop
   vertex 1.8 2 2
   vertex -2.2 2 2
   vertex -2.2 -2 2
  endloop
 endfacet
 facet normal 0 0 1
  outer loop
   vertex 1.8 2 2
   vertex -2.2 -2 2
   vertex 1.8 -2 2
  endloop
 endfacet
endsolid farfield
