solid fin4
  facet normal -0.093587 0.000000 -0.995611
    outer loop
      vertex -300.000000 30.000000 0.000000
      vertex -292.500000 30.000000 -0.705000
      vertex -292.500000 15.000000 -0.705000
    endloop
  endfacet
  facet normal -0.093587 -0.000000 -0.995611
    outer loop
      vertex -300.000000 30.000000 0.000000
      vertex -292.500000 15.000000 -0.705000
      vertex -300.000000 15.000000 0.000000
    endloop
  endfacet
  facet normal 0.000000 0.000000 -1.000000
    outer loop
      vertex -292.500000 15.000000 -0.705000
      vertex -292.500000 30.000000 -0.705000
      vertex -287.489990 30.000000 -0.705000
    endloop
  endfacet
  facet normal 0.000000 0.000000 -1.000000
    outer loop
      vertex -292.500000 15.000000 -0.705000
      vertex -287.489990 30.000000 -0.705000
      vertex -267.489990 15.000000 -0.705000
    endloop
  endfacet
  facet normal 0.000000 1.000000 -0.000000
    outer loop
      vertex -292.500000 30.000000 -0.705000
      vertex -300.000000 30.000000 0.000000
      vertex -292.500000 30.000000 0.705000
    endloop
  endfacet
  facet normal 0.000000 1.000000 -0.000000
    outer loop
      vertex -287.489990 30.000000 -0.705000
      vertex -292.500000 30.000000 0.705000
      vertex -287.489990 30.000000 0.705000
    endloop
  endfacet
  facet normal 0.000000 1.000000 0.000000
    outer loop
      vertex -287.489990 30.000000 -0.705000
      vertex -292.500000 30.000000 -0.705000
      vertex -292.500000 30.000000 0.705000
    endloop
  endfacet
  facet normal 0.000000 1.000000 -0.000000
    outer loop
      vertex -280.000000 30.000000 -0.000940
      vertex -287.489990 30.000000 0.705000
      vertex -280.000000 30.000000 0.000940
    endloop
  endfacet
  facet normal 0.000000 1.000000 0.000000
    outer loop
      vertex -280.000000 30.000000 -0.000940
      vertex -287.489990 30.000000 -0.705000
      vertex -287.489990 30.000000 0.705000
    endloop
  endfacet
  facet normal 0.000000 -1.000000 0.000000
    outer loop
      vertex -267.489990 15.000000 -0.705000
      vertex -260.000000 15.000000 0.000940
      vertex -267.489990 15.000000 0.705000
    endloop
  endfacet
  facet normal 0.000000 -1.000000 0.000000
    outer loop
      vertex -267.489990 15.000000 -0.705000
      vertex -260.000000 15.000000 -0.000940
      vertex -260.000000 15.000000 0.000940
    endloop
  endfacet
  facet normal 0.000000 -1.000000 0.000000
    outer loop
      vertex -292.500000 15.000000 -0.705000
      vertex -267.489990 15.000000 0.705000
      vertex -292.500000 15.000000 0.705000
    endloop
  endfacet
  facet normal 0.000000 -1.000000 0.000000
    outer loop
      vertex -292.500000 15.000000 -0.705000
      vertex -267.489990 15.000000 -0.705000
      vertex -267.489990 15.000000 0.705000
    endloop
  endfacet
  facet normal 0.000000 -1.000000 0.000000
    outer loop
      vertex -300.000000 15.000000 0.000000
      vertex -292.500000 15.000000 -0.705000
      vertex -292.500000 15.000000 0.705000
    endloop
  endfacet
  facet normal -0.093587 0.000000 0.995611
    outer loop
      vertex -292.500000 30.000000 0.705000
      vertex -300.000000 30.000000 0.000000
      vertex -300.000000 15.000000 0.000000
    endloop
  endfacet
  facet normal -0.093587 0.000000 0.995611
    outer loop
      vertex -292.500000 30.000000 0.705000
      vertex -300.000000 15.000000 0.000000
      vertex -292.500000 15.000000 0.705000
    endloop
  endfacet
  facet normal 0.092867 0.123823 -0.987949
    outer loop
      vertex -287.489990 30.000000 -0.705000
      vertex -280.000000 30.000000 -0.000940
      vertex -260.000000 15.000000 -0.000940
    endloop
  endfacet
  facet normal 0.092867 0.123823 -0.987949
    outer loop
      vertex -267.489990 15.000000 -0.705000
      vertex -287.489990 30.000000 -0.705000
      vertex -260.000000 15.000000 -0.000940
    endloop
  endfacet
  facet normal 0.600000 0.800000 -0.000000
    outer loop
      vertex -260.000000 15.000000 -0.000940
      vertex -280.000000 30.000000 0.000940
      vertex -260.000000 15.000000 0.000940
    endloop
  endfacet
  facet normal 0.600000 0.800000 0.000000
    outer loop
      vertex -260.000000 15.000000 -0.000940
      vertex -280.000000 30.000000 -0.000940
      vertex -280.000000 30.000000 0.000940
    endloop
  endfacet
  facet normal 0.092867 0.123823 0.987949
    outer loop
      vertex -267.489990 15.000000 0.705000
      vertex -260.000000 15.000000 0.000940
      vertex -280.000000 30.000000 0.000940
    endloop
  endfacet
  facet normal 0.092867 0.123823 0.987949
    outer loop
      vertex -267.489990 15.000000 0.705000
      vertex -280.000000 30.000000 0.000940
      vertex -287.489990 30.000000 0.705000
    endloop
  endfacet
  facet normal 0.000000 0.000000 1.000000
    outer loop
      vertex -287.489990 30.000000 0.705000
      vertex -292.500000 30.000000 0.705000
      vertex -292.500000 15.000000 0.705000
    endloop
  endfacet
  facet normal 0.000000 0.000000 1.000000
    outer loop
      vertex -267.489990 15.000000 0.705000
      vertex -287.489990 30.000000 0.705000
      vertex -292.500000 15.000000 0.705000
    endloop
  endfacet
endsolid fin4
