solid patch_0_0
 facet normal 0.0 0.0 1.0
  outer loop
   vertex 0.0006119561195373535 0.029993757247924805 0.1
   vertex -0.013565156936645508 0.026757925033569337 0.1
   vertex -0.017732433319091797 0.024198362350463867 0.1
  endloop
 endfacet
 facet normal 0.0 0.0 1.0
  outer loop
   vertex 0.014645286560058594 -0.02618235206604004 0.1
   vertex 0.01019667911529541 -0.02821396255493164 0.1
   vertex 0.012462450027465821 -0.027288959503173827 0.1
  endloop
 endfacet
 facet normal 0.0 0.0 1.0
  outer loop
   vertex 0.0006119561195373535 0.029993757247924805 0.1
   vertex -0.0018348498344421388 0.029943836212158202 0.1
   vertex -0.013565156936645508 0.026757925033569337 0.1
  endloop
 endfacet
 facet normal 0.0 0.0 1.0
  outer loop
   vertex 0.029900177001953125 0.0024452784061431885 0.1
   vertex 0.029105579376220703 -0.007270852088928223 0.1
   vertex 0.03 -7.000000131271574e-18 0.1
  endloop
 endfacet
 facet normal 0.0 0.0 1.0
  outer loop
   vertex -0.025878162384033204 0.015176321029663086 0.1
   vertex -0.02702906608581543 0.013016511917114258 0.1
   vertex -0.02800009536743164 0.01077008056640625 0.1
  endloop
 endfacet
 facet normal 0.0 0.0 1.0
  outer loop
   vertex 0.003054689645767212 0.02984407615661621 0.1
   vertex -0.009037385940551758 -0.028606391906738284 0.1
   vertex 0.0006119561195373535 -0.029993757247924805 0.1
  endloop
 endfacet
 facet normal 0.0 0.0 1.0
  outer loop
   vertex 0.003054689645767212 0.02984407615661621 0.1
   vertex -0.017732433319091797 0.024198362350463867 0.1
   vertex -0.021428470611572267 0.020995729446411135 0.1
  endloop
 endfacet
 facet normal 0.0 0.0 1.0
  outer loop
   vertex 0.003054689645767212 0.02984407615661621 0.1
   vertex -0.021428470611572267 0.020995729446411135 0.1
   vertex -0.009037385940551758 -0.028606391906738284 0.1
  endloop
 endfacet
 facet normal 0.0 0.0 1.0
  outer loop
   vertex 0.003054689645767212 0.02984407615661621 0.1
   vertex 0.0006119561195373535 0.029993757247924805 0.1
   vertex -0.017732433319091797 0.024198362350463867 0.1
  endloop
 endfacet
 facet normal 0.0 0.0 1.0
  outer loop
   vertex -0.024555044174194338 0.017235132217407228 0.1
   vertex -0.025878162384033204 0.015176321029663086 0.1
   vertex -0.02800009536743164 0.01077008056640625 0.1
  endloop
 endfacet
 facet normal 0.0 0.0 1.0
  outer loop
   vertex -0.01570103931427002 -0.025563203811645507 0.1
   vertex -0.019645822525024413 -0.022672487258911134 0.1
   vertex -0.017732433319091797 -0.024198362350463867 0.1
  endloop
 endfacet
 facet normal 0.0 0.0 1.0
  outer loop
   vertex 0.029601373672485352 0.004874284267425537 0.1
   vertex 0.029105579376220703 -0.007270852088928223 0.1
   vertex 0.029900177001953125 0.0024452784061431885 0.1
  endloop
 endfacet
 facet normal 0.0 0.0 1.0
  outer loop
   vertex 0.018704694747924806 -0.023454944610595704 0.1
   vertex 0.014645286560058594 -0.02618235206604004 0.1
   vertex 0.01673065948486328 -0.024901506423950195 0.1
  endloop
 endfacet
 facet normal 0.0 0.0 1.0
  outer loop
   vertex -0.025878162384033204 -0.015176321029663086 0.1
   vertex -0.024555044174194338 -0.017235132217407228 0.1
   vertex -0.02306851577758789 -0.019179248809814455 0.1
  endloop
 endfacet
 facet normal 0.0 0.0 1.0
  outer loop
   vertex -0.025878162384033204 -0.015176321029663086 0.1
   vertex -0.02306851577758789 -0.019179248809814455 0.1
   vertex -0.021428470611572267 -0.020995729446411135 0.1
  endloop
 endfacet
 facet normal 0.0 0.0 1.0
  outer loop
   vertex 0.005477094650268555 0.029495786666870118 0.1
   vertex 0.0006119561195373535 -0.029993757247924805 0.1
   vertex 0.01019667911529541 -0.02821396255493164 0.1
  endloop
 endfacet
 facet normal 0.0 0.0 1.0
  outer loop
   vertex 0.005477094650268555 0.029495786666870118 0.1
   vertex 0.003054689645767212 0.02984407615661621 0.1
   vertex 0.0006119561195373535 -0.029993757247924805 0.1
  endloop
 endfacet
 facet normal 0.0 0.0 1.0
  outer loop
   vertex -0.02306851577758789 0.019179248809814455 0.1
   vertex -0.024555044174194338 0.017235132217407228 0.1
   vertex -0.02800009536743164 0.01077008056640625 0.1
  endloop
 endfacet
 facet normal 0.0 0.0 1.0
  outer loop
   vertex -0.02306851577758789 0.019179248809814455 0.1
   vertex -0.02800009536743164 0.01077008056640625 0.1
   vertex -0.0287847900390625 0.008451976776123048 0.1
  endloop
 endfacet
 facet normal 0.0 0.0 1.0
  outer loop
   vertex 0.007863050460815429 0.028951208114624025 0.1
   vertex 0.005477094650268555 0.029495786666870118 0.1
   vertex 0.01019667911529541 -0.02821396255493164 0.1
  endloop
 endfacet
 facet normal 0.0 0.0 1.0
  outer loop
   vertex 0.007863050460815429 0.028951208114624025 0.1
   vertex 0.01019667911529541 -0.02821396255493164 0.1
   vertex 0.014645286560058594 -0.02618235206604004 0.1
  endloop
 endfacet
 facet normal 0.0 0.0 1.0
  outer loop
   vertex -0.021428470611572267 0.020995729446411135 0.1
   vertex -0.0287847900390625 -0.008451976776123048 0.1
   vertex -0.009037385940551758 -0.028606391906738284 0.1
  endloop
 endfacet
 facet normal 0.0 0.0 1.0
  outer loop
   vertex -0.021428470611572267 0.020995729446411135 0.1
   vertex -0.02306851577758789 0.019179248809814455 0.1
   vertex -0.0287847900390625 0.008451976776123048 0.1
  endloop
 endfacet
 facet normal 0.0 0.0 1.0
  outer loop
   vertex -0.021428470611572267 0.020995729446411135 0.1
   vertex -0.0287847900390625 0.008451976776123048 0.1
   vertex -0.029975034713745116 -0.0012236576080322265 0.1
  endloop
 endfacet
 facet normal 0.0 0.0 1.0
  outer loop
   vertex -0.021428470611572267 0.020995729446411135 0.1
   vertex -0.029975034713745116 -0.0012236576080322265 0.1
   vertex -0.0287847900390625 -0.008451976776123048 0.1
  endloop
 endfacet
 facet normal 0.0 0.0 1.0
  outer loop
   vertex 0.027537498474121094 0.011903202056884766 0.1
   vertex 0.029601373672485352 0.004874284267425537 0.1
   vertex 0.029105579376220703 0.007270852088928223 0.1
  endloop
 endfacet
 facet normal 0.0 0.0 1.0
  outer loop
   vertex 0.027537498474121094 0.011903202056884766 0.1
   vertex 0.029105579376220703 0.007270852088928223 0.1
   vertex 0.02841609001159668 0.009619033813476563 0.1
  endloop
 endfacet
 facet normal 0.0 0.0 1.0
  outer loop
   vertex 0.022267023086547853 -0.020104219436645508 0.1
   vertex 0.018704694747924806 -0.023454944610595704 0.1
   vertex 0.020554250717163085 -0.021852293014526368 0.1
  endloop
 endfacet
 facet normal 0.0 0.0 1.0
  outer loop
   vertex -0.009037385940551758 -0.028606391906738284 0.1
   vertex -0.013565156936645508 -0.026757925033569337 0.1
   vertex -0.011339000701904297 -0.02777457618713379 0.1
  endloop
 endfacet
 facet normal 0.0 0.0 1.0
  outer loop
   vertex 0.012462450027465821 0.027288959503173827 0.1
   vertex 0.01019667911529541 0.02821396255493164 0.1
   vertex 0.007863050460815429 0.028951208114624025 0.1
  endloop
 endfacet
 facet normal 0.0 0.0 1.0
  outer loop
   vertex 0.023831611633300782 -0.018222354888916017 0.1
   vertex 0.018704694747924806 -0.023454944610595704 0.1
   vertex 0.022267023086547853 -0.020104219436645508 0.1
  endloop
 endfacet
 facet normal 0.0 0.0 1.0
  outer loop
   vertex 0.023831611633300782 -0.018222354888916017 0.1
   vertex 0.014645286560058594 -0.02618235206604004 0.1
   vertex 0.018704694747924806 -0.023454944610595704 0.1
  endloop
 endfacet
 facet normal 0.0 0.0 1.0
  outer loop
   vertex -0.0287847900390625 -0.008451976776123048 0.1
   vertex -0.02800009536743164 -0.01077008056640625 0.1
   vertex -0.02702906608581543 -0.013016511917114258 0.1
  endloop
 endfacet
 facet normal 0.0 0.0 1.0
  outer loop
   vertex -0.0287847900390625 -0.008451976776123048 0.1
   vertex -0.02702906608581543 -0.013016511917114258 0.1
   vertex -0.025878162384033204 -0.015176321029663086 0.1
  endloop
 endfacet
 facet normal 0.0 0.0 1.0
  outer loop
   vertex -0.0287847900390625 -0.008451976776123048 0.1
   vertex -0.021428470611572267 -0.020995729446411135 0.1
   vertex -0.019645822525024413 -0.022672487258911134 0.1
  endloop
 endfacet
 facet normal 0.0 0.0 1.0
  outer loop
   vertex -0.0287847900390625 -0.008451976776123048 0.1
   vertex -0.01570103931427002 -0.025563203811645507 0.1
   vertex -0.013565156936645508 -0.026757925033569337 0.1
  endloop
 endfacet
 facet normal 0.0 0.0 1.0
  outer loop
   vertex -0.017732433319091797 0.024198362350463867 0.1
   vertex -0.019645822525024413 0.022672487258911134 0.1
   vertex -0.021428470611572267 0.020995729446411135 0.1
  endloop
 endfacet
 facet normal 0.0 0.0 1.0
  outer loop
   vertex -0.0287847900390625 -0.008451976776123048 0.1
   vertex -0.019645822525024413 -0.022672487258911134 0.1
   vertex -0.01570103931427002 -0.025563203811645507 0.1
  endloop
 endfacet
 facet normal 0.0 0.0 1.0
  outer loop
   vertex 0.014645286560058594 0.02618235206604004 0.1
   vertex 0.012462450027465821 0.027288959503173827 0.1
   vertex 0.007863050460815429 0.028951208114624025 0.1
  endloop
 endfacet
 facet normal 0.0 0.0 1.0
  outer loop
   vertex -0.0287847900390625 -0.008451976776123048 0.1
   vertex -0.025878162384033204 -0.015176321029663086 0.1
   vertex -0.021428470611572267 -0.020995729446411135 0.1
  endloop
 endfacet
 facet normal 0.0 0.0 1.0
  outer loop
   vertex -0.0287847900390625 -0.008451976776123048 0.1
   vertex -0.013565156936645508 -0.026757925033569337 0.1
   vertex -0.009037385940551758 -0.028606391906738284 0.1
  endloop
 endfacet
 facet normal 0.0 0.0 1.0
  outer loop
   vertex 0.01673065948486328 0.024901506423950195 0.1
   vertex 0.014645286560058594 0.02618235206604004 0.1
   vertex 0.007863050460815429 0.028951208114624025 0.1
  endloop
 endfacet
 facet normal 0.0 0.0 1.0
  outer loop
   vertex 0.023831611633300782 0.018222354888916017 0.1
   vertex 0.027537498474121094 0.011903202056884766 0.1
   vertex 0.02647564697265625 0.01410815715789795 0.1
  endloop
 endfacet
 facet normal 0.0 0.0 1.0
  outer loop
   vertex 0.023831611633300782 0.018222354888916017 0.1
   vertex 0.02647564697265625 0.01410815715789795 0.1
   vertex 0.025237606048583983 0.01621922492980957 0.1
  endloop
 endfacet
 facet normal 0.0 0.0 1.0
  outer loop
   vertex -0.013565156936645508 0.026757925033569337 0.1
   vertex -0.01570103931427002 0.025563203811645507 0.1
   vertex -0.017732433319091797 0.024198362350463867 0.1
  endloop
 endfacet
 facet normal 0.0 0.0 1.0
  outer loop
   vertex -0.0018348498344421388 -0.029943836212158202 0.1
   vertex -0.006675628185272217 -0.029247837066650392 0.1
   vertex -0.004269444942474366 -0.029694643020629883 0.1
  endloop
 endfacet
 facet normal 0.0 0.0 1.0
  outer loop
   vertex 0.022267023086547853 0.020104219436645508 0.1
   vertex 0.029105579376220703 -0.007270852088928223 0.1
   vertex 0.029601373672485352 0.004874284267425537 0.1
  endloop
 endfacet
 facet normal 0.0 0.0 1.0
  outer loop
   vertex 0.022267023086547853 0.020104219436645508 0.1
   vertex 0.007863050460815429 0.028951208114624025 0.1
   vertex 0.014645286560058594 -0.02618235206604004 0.1
  endloop
 endfacet
 facet normal 0.0 0.0 1.0
  outer loop
   vertex 0.022267023086547853 0.020104219436645508 0.1
   vertex 0.027537498474121094 0.011903202056884766 0.1
   vertex 0.023831611633300782 0.018222354888916017 0.1
  endloop
 endfacet
 facet normal 0.0 0.0 1.0
  outer loop
   vertex 0.022267023086547853 0.020104219436645508 0.1
   vertex 0.01673065948486328 0.024901506423950195 0.1
   vertex 0.007863050460815429 0.028951208114624025 0.1
  endloop
 endfacet
 facet normal 0.0 0.0 1.0
  outer loop
   vertex -0.029975034713745116 -0.0012236576080322265 0.1
   vertex -0.029775554656982423 -0.003662829399108887 0.1
   vertex -0.029377923965454102 -0.006077625751495361 0.1
  endloop
 endfacet
 facet normal 0.0 0.0 1.0
  outer loop
   vertex -0.029975034713745116 -0.0012236576080322265 0.1
   vertex -0.029377923965454102 -0.006077625751495361 0.1
   vertex -0.0287847900390625 -0.008451976776123048 0.1
  endloop
 endfacet
 facet normal 0.0 0.0 1.0
  outer loop
   vertex 0.022267023086547853 0.020104219436645508 0.1
   vertex 0.014645286560058594 -0.02618235206604004 0.1
   vertex 0.029105579376220703 -0.007270852088928223 0.1
  endloop
 endfacet
 facet normal 0.0 0.0 1.0
  outer loop
   vertex 0.027537498474121094 -0.011903202056884766 0.1
   vertex 0.023831611633300782 -0.018222354888916017 0.1
   vertex 0.025237606048583983 -0.01621922492980957 0.1
  endloop
 endfacet
 facet normal 0.0 0.0 1.0
  outer loop
   vertex 0.022267023086547853 0.020104219436645508 0.1
   vertex 0.029601373672485352 0.004874284267425537 0.1
   vertex 0.027537498474121094 0.011903202056884766 0.1
  endloop
 endfacet
 facet normal 0.0 0.0 1.0
  outer loop
   vertex 0.027537498474121094 -0.011903202056884766 0.1
   vertex 0.025237606048583983 -0.01621922492980957 0.1
   vertex 0.02647564697265625 -0.01410815715789795 0.1
  endloop
 endfacet
 facet normal 0.0 0.0 1.0
  outer loop
   vertex 0.020554250717163085 0.021852293014526368 0.1
   vertex 0.018704694747924806 0.023454944610595704 0.1
   vertex 0.01673065948486328 0.024901506423950195 0.1
  endloop
 endfacet
 facet normal 0.0 0.0 1.0
  outer loop
   vertex 0.0006119561195373535 -0.029993757247924805 0.1
   vertex -0.006675628185272217 -0.029247837066650392 0.1
   vertex -0.0018348498344421388 -0.029943836212158202 0.1
  endloop
 endfacet
 facet normal 0.0 0.0 1.0
  outer loop
   vertex 0.020554250717163085 0.021852293014526368 0.1
   vertex 0.01673065948486328 0.024901506423950195 0.1
   vertex 0.022267023086547853 0.020104219436645508 0.1
  endloop
 endfacet
 facet normal 0.0 0.0 1.0
  outer loop
   vertex 0.0006119561195373535 -0.029993757247924805 0.1
   vertex -0.009037385940551758 -0.028606391906738284 0.1
   vertex -0.006675628185272217 -0.029247837066650392 0.1
  endloop
 endfacet
 facet normal 0.0 0.0 1.0
  outer loop
   vertex 0.029105579376220703 -0.007270852088928223 0.1
   vertex 0.014645286560058594 -0.02618235206604004 0.1
   vertex 0.023831611633300782 -0.018222354888916017 0.1
  endloop
 endfacet
 facet normal 0.0 0.0 1.0
  outer loop
   vertex 0.029105579376220703 -0.007270852088928223 0.1
   vertex 0.023831611633300782 -0.018222354888916017 0.1
   vertex 0.027537498474121094 -0.011903202056884766 0.1
  endloop
 endfacet
 facet normal 0.0 0.0 1.0
  outer loop
   vertex -0.029775554656982423 0.003662829399108887 0.1
   vertex -0.029975034713745116 0.0012236576080322265 0.1
   vertex -0.029975034713745116 -0.0012236576080322265 0.1
  endloop
 endfacet
 facet normal 0.0 0.0 1.0
  outer loop
   vertex 0.029105579376220703 -0.007270852088928223 0.1
   vertex 0.027537498474121094 -0.011903202056884766 0.1
   vertex 0.02841609001159668 -0.009619033813476563 0.1
  endloop
 endfacet
 facet normal 0.0 0.0 1.0
  outer loop
   vertex -0.006675628185272217 0.029247837066650392 0.1
   vertex -0.009037385940551758 0.028606391906738284 0.1
   vertex -0.011339000701904297 0.02777457618713379 0.1
  endloop
 endfacet
 facet normal 0.0 0.0 1.0
  outer loop
   vertex -0.0287847900390625 0.008451976776123048 0.1
   vertex -0.029775554656982423 0.003662829399108887 0.1
   vertex -0.029975034713745116 -0.0012236576080322265 0.1
  endloop
 endfacet
 facet normal 0.0 0.0 1.0
  outer loop
   vertex -0.0287847900390625 0.008451976776123048 0.1
   vertex -0.029377923965454102 0.006077625751495361 0.1
   vertex -0.029775554656982423 0.003662829399108887 0.1
  endloop
 endfacet
 facet normal 0.0 0.0 1.0
  outer loop
   vertex 0.029900177001953125 -0.0024452784061431885 0.1
   vertex 0.029105579376220703 -0.007270852088928223 0.1
   vertex 0.029601373672485352 -0.004874284267425537 0.1
  endloop
 endfacet
 facet normal 0.0 0.0 1.0
  outer loop
   vertex -0.0018348498344421388 0.029943836212158202 0.1
   vertex -0.004269444942474366 0.029694643020629883 0.1
   vertex -0.006675628185272217 0.029247837066650392 0.1
  endloop
 endfacet
 facet normal 0.0 0.0 1.0
  outer loop
   vertex 0.01019667911529541 -0.02821396255493164 0.1
   vertex 0.0006119561195373535 -0.029993757247924805 0.1
   vertex 0.003054689645767212 -0.02984407615661621 0.1
  endloop
 endfacet
 facet normal 0.0 0.0 1.0
  outer loop
   vertex -0.0018348498344421388 0.029943836212158202 0.1
   vertex -0.011339000701904297 0.02777457618713379 0.1
   vertex -0.013565156936645508 0.026757925033569337 0.1
  endloop
 endfacet
 facet normal 0.0 0.0 1.0
  outer loop
   vertex 0.01019667911529541 -0.02821396255493164 0.1
   vertex 0.003054689645767212 -0.02984407615661621 0.1
   vertex 0.005477094650268555 -0.029495786666870118 0.1
  endloop
 endfacet
 facet normal 0.0 0.0 1.0
  outer loop
   vertex 0.01019667911529541 -0.02821396255493164 0.1
   vertex 0.005477094650268555 -0.029495786666870118 0.1
   vertex 0.007863050460815429 -0.028951208114624025 0.1
  endloop
 endfacet
 facet normal 0.0 0.0 1.0
  outer loop
   vertex -0.0018348498344421388 0.029943836212158202 0.1
   vertex -0.006675628185272217 0.029247837066650392 0.1
   vertex -0.011339000701904297 0.02777457618713379 0.1
  endloop
 endfacet
 facet normal 0.0 0.0 1.0
  outer loop
   vertex 0.03 -7.000000131271574e-18 0.1
   vertex 0.029105579376220703 -0.007270852088928223 0.1
   vertex 0.029900177001953125 -0.0024452784061431885 0.1
  endloop
 endfacet
endsolid patch_0_0
solid patch_1_0
 facet normal 0.999167799949646 0.04078878089785576 0.0
  outer loop
   vertex 0.029900177001953125 0.0024452784061431885 0.1
   vertex 0.03 -7.000000131271574e-18 0.1
   vertex 0.03 -7.000000131271574e-18 0.0
  endloop
 endfacet
 facet normal 0.999167799949646 0.04078878089785576 0.0
  outer loop
   vertex 0.029900177001953125 0.0024452784061431885 0.1
   vertex 0.03 -7.000000131271574e-18 0.0
   vertex 0.029900177001953125 0.0024452784061431885 0.0
  endloop
 endfacet
 facet normal 0.9925184845924377 0.12209432572126389 0.0
  outer loop
   vertex 0.029601373672485352 0.004874284267425537 0.1
   vertex 0.029900177001953125 0.0024452784061431885 0.1
   vertex 0.029900177001953125 0.0024452784061431885 0.0
  endloop
 endfacet
 facet normal 0.9925184845924377 0.12209432572126389 0.0
  outer loop
   vertex 0.029601373672485352 0.004874284267425537 0.1
   vertex 0.029900177001953125 0.0024452784061431885 0.0
   vertex 0.029601373672485352 0.004874284267425537 0.0
  endloop
 endfacet
 facet normal 0.9792642593383789 0.2025870531797409 0.0
  outer loop
   vertex 0.029105579376220703 0.007270852088928223 0.1
   vertex 0.029601373672485352 0.004874284267425537 0.1
   vertex 0.029601373672485352 0.004874284267425537 0.0
  endloop
 endfacet
 facet normal 0.9792642593383789 0.2025870531797409 0.0
  outer loop
   vertex 0.029105579376220703 0.007270852088928223 0.1
   vertex 0.029601373672485352 0.004874284267425537 0.0
   vertex 0.029105579376220703 0.007270852088928223 0.0
  endloop
 endfacet
 facet normal 0.9594928622245789 0.2817329168319702 0.0
  outer loop
   vertex 0.02841609001159668 0.009619033813476563 0.1
   vertex 0.029105579376220703 0.007270852088928223 0.1
   vertex 0.029105579376220703 0.007270852088928223 0.0
  endloop
 endfacet
 facet normal 0.9594928622245789 0.2817329168319702 0.0
  outer loop
   vertex 0.02841609001159668 0.009619033813476563 0.1
   vertex 0.029105579376220703 0.007270852088928223 0.0
   vertex 0.02841609001159668 0.009619033813476563 0.0
  endloop
 endfacet
 facet normal 0.9333366751670837 0.35900232195854187 0.0
  outer loop
   vertex 0.027537498474121094 0.011903202056884766 0.1
   vertex 0.02841609001159668 0.009619033813476563 0.1
   vertex 0.02841609001159668 0.009619033813476563 0.0
  endloop
 endfacet
 facet normal 0.9333366751670837 0.35900232195854187 0.0
  outer loop
   vertex 0.027537498474121094 0.011903202056884766 0.1
   vertex 0.02841609001159668 0.009619033813476563 0.0
   vertex 0.027537498474121094 0.011903202056884766 0.0
  endloop
 endfacet
 facet normal 0.9009687304496765 0.4338841140270233 0.0
  outer loop
   vertex 0.02647564697265625 0.01410815715789795 0.1
   vertex 0.027537498474121094 0.011903202056884766 0.0
   vertex 0.02647564697265625 0.01410815715789795 0.0
  endloop
 endfacet
 facet normal 0.9009687304496765 0.4338841140270233 0.0
  outer loop
   vertex 0.02647564697265625 0.01410815715789795 0.1
   vertex 0.027537498474121094 0.011903202056884766 0.1
   vertex 0.027537498474121094 0.011903202056884766 0.0
  endloop
 endfacet
 facet normal 0.8626055717468262 0.5058771371841431 0.0
  outer loop
   vertex 0.025237606048583983 0.01621922492980957 0.1
   vertex 0.02647564697265625 0.01410815715789795 0.0
   vertex 0.025237606048583983 0.01621922492980957 0.0
  endloop
 endfacet
 facet normal 0.8626055717468262 0.5058771371841431 0.0
  outer loop
   vertex 0.025237606048583983 0.01621922492980957 0.1
   vertex 0.02647564697265625 0.01410815715789795 0.1
   vertex 0.02647564697265625 0.01410815715789795 0.0
  endloop
 endfacet
 facet normal 0.8185011148452759 0.5745049118995667 0.0
  outer loop
   vertex 0.023831611633300782 0.018222354888916017 0.1
   vertex 0.025237606048583983 0.01621922492980957 0.0
   vertex 0.023831611633300782 0.018222354888916017 0.0
  endloop
 endfacet
 facet normal 0.8185011148452759 0.5745049118995667 0.0
  outer loop
   vertex 0.023831611633300782 0.018222354888916017 0.1
   vertex 0.025237606048583983 0.01621922492980957 0.1
   vertex 0.025237606048583983 0.01621922492980957 0.0
  endloop
 endfacet
 facet normal 0.7689506411552429 0.6393081545829773 0.0
  outer loop
   vertex 0.022267023086547853 0.020104219436645508 0.1
   vertex 0.023831611633300782 0.018222354888916017 0.0
   vertex 0.022267023086547853 0.020104219436645508 0.0
  endloop
 endfacet
 facet normal 0.7689506411552429 0.6393081545829773 0.0
  outer loop
   vertex 0.022267023086547853 0.020104219436645508 0.1
   vertex 0.023831611633300782 0.018222354888916017 0.1
   vertex 0.023831611633300782 0.018222354888916017 0.0
  endloop
 endfacet
 facet normal 0.714282214641571 0.6998577117919922 0.0
  outer loop
   vertex 0.020554250717163085 0.021852293014526368 0.1
   vertex 0.022267023086547853 0.020104219436645508 0.0
   vertex 0.020554250717163085 0.021852293014526368 0.0
  endloop
 endfacet
 facet normal 0.714282214641571 0.6998577117919922 0.0
  outer loop
   vertex 0.020554250717163085 0.021852293014526368 0.1
   vertex 0.022267023086547853 0.020104219436645508 0.1
   vertex 0.022267023086547853 0.020104219436645508 0.0
  endloop
 endfacet
 facet normal 0.6548612117767334 0.7557490468025208 0.0
  outer loop
   vertex 0.018704694747924806 0.023454944610595704 0.1
   vertex 0.020554250717163085 0.021852293014526368 0.1
   vertex 0.020554250717163085 0.021852293014526368 0.0
  endloop
 endfacet
 facet normal 0.6548612117767334 0.7557490468025208 0.0
  outer loop
   vertex 0.018704694747924806 0.023454944610595704 0.1
   vertex 0.020554250717163085 0.021852293014526368 0.0
   vertex 0.018704694747924806 0.023454944610595704 0.0
  endloop
 endfacet
 facet normal 0.591080904006958 0.8066122531890869 0.0
  outer loop
   vertex 0.01673065948486328 0.024901506423950195 0.1
   vertex 0.018704694747924806 0.023454944610595704 0.1
   vertex 0.018704694747924806 0.023454944610595704 0.0
  endloop
 endfacet
 facet normal 0.591080904006958 0.8066122531890869 0.0
  outer loop
   vertex 0.01673065948486328 0.024901506423950195 0.1
   vertex 0.018704694747924806 0.023454944610595704 0.0
   vertex 0.01673065948486328 0.024901506423950195 0.0
  endloop
 endfacet
 facet normal 0.5233679413795471 0.8521068096160889 0.0
  outer loop
   vertex 0.014645286560058594 0.02618235206604004 0.1
   vertex 0.01673065948486328 0.024901506423950195 0.1
   vertex 0.01673065948486328 0.024901506423950195 0.0
  endloop
 endfacet
 facet normal 0.5233679413795471 0.8521068096160889 0.0
  outer loop
   vertex 0.014645286560058594 0.02618235206604004 0.1
   vertex 0.01673065948486328 0.024901506423950195 0.0
   vertex 0.014645286560058594 0.02618235206604004 0.0
  endloop
 endfacet
 facet normal 0.45217186212539673 0.8919308185577393 0.0
  outer loop
   vertex 0.012462450027465821 0.027288959503173827 0.1
   vertex 0.014645286560058594 0.02618235206604004 0.1
   vertex 0.014645286560058594 0.02618235206604004 0.0
  endloop
 endfacet
 facet normal 0.45217186212539673 0.8919308185577393 0.0
  outer loop
   vertex 0.012462450027465821 0.027288959503173827 0.1
   vertex 0.014645286560058594 0.02618235206604004 0.0
   vertex 0.012462450027465821 0.027288959503173827 0.0
  endloop
 endfacet
 facet normal 0.3779665529727936 0.9258192181587219 0.0
  outer loop
   vertex 0.01019667911529541 0.02821396255493164 0.1
   vertex 0.012462450027465821 0.027288959503173827 0.1
   vertex 0.012462450027465821 0.027288959503173827 0.0
  endloop
 endfacet
 facet normal 0.3779665529727936 0.9258192181587219 0.0
  outer loop
   vertex 0.01019667911529541 0.02821396255493164 0.1
   vertex 0.012462450027465821 0.027288959503173827 0.0
   vertex 0.01019667911529541 0.02821396255493164 0.0
  endloop
 endfacet
 facet normal 0.30124661326408386 0.9535462260246277 0.0
  outer loop
   vertex 0.007863050460815429 0.028951208114624025 0.1
   vertex 0.01019667911529541 0.02821396255493164 0.1
   vertex 0.01019667911529541 0.02821396255493164 0.0
  endloop
 endfacet
 facet normal 0.30124661326408386 0.9535462260246277 0.0
  outer loop
   vertex 0.007863050460815429 0.028951208114624025 0.1
   vertex 0.01019667911529541 0.02821396255493164 0.0
   vertex 0.007863050460815429 0.028951208114624025 0.0
  endloop
 endfacet
 facet normal 0.22252081334590912 0.9749279022216797 0.0
  outer loop
   vertex 0.005477094650268555 0.029495786666870118 0.1
   vertex 0.007863050460815429 0.028951208114624025 0.1
   vertex 0.007863050460815429 0.028951208114624025 0.0
  endloop
 endfacet
 facet normal 0.22252081334590912 0.9749279022216797 0.0
  outer loop
   vertex 0.005477094650268555 0.029495786666870118 0.1
   vertex 0.007863050460815429 0.028951208114624025 0.0
   vertex 0.005477094650268555 0.029495786666870118 0.0
  endloop
 endfacet
 facet normal 0.14231494069099426 0.9898214340209961 0.0
  outer loop
   vertex 0.003054689645767212 0.02984407615661621 0.1
   vertex 0.005477094650268555 0.029495786666870118 0.1
   vertex 0.005477094650268555 0.029495786666870118 0.0
  endloop
 endfacet
 facet normal 0.14231494069099426 0.9898214340209961 0.0
  outer loop
   vertex 0.003054689645767212 0.02984407615661621 0.1
   vertex 0.005477094650268555 0.029495786666870118 0.0
   vertex 0.003054689645767212 0.02984407615661621 0.0
  endloop
 endfacet
 facet normal 0.0611613504588604 0.9981278777122498 0.0
  outer loop
   vertex 0.0006119561195373535 0.029993757247924805 0.1
   vertex 0.003054689645767212 0.02984407615661621 0.1
   vertex 0.003054689645767212 0.02984407615661621 0.0
  endloop
 endfacet
 facet normal 0.0611613504588604 0.9981278777122498 0.0
  outer loop
   vertex 0.0006119561195373535 0.029993757247924805 0.1
   vertex 0.003054689645767212 0.02984407615661621 0.0
   vertex 0.0006119561195373535 0.029993757247924805 0.0
  endloop
 endfacet
 facet normal -0.02039828523993492 0.9997919201850891 0.0
  outer loop
   vertex -0.0018348498344421388 0.029943836212158202 0.1
   vertex 0.0006119561195373535 0.029993757247924805 0.1
   vertex 0.0006119561195373535 0.029993757247924805 0.0
  endloop
 endfacet
 facet normal -0.02039828523993492 0.9997919201850891 0.0
  outer loop
   vertex -0.0018348498344421388 0.029943836212158202 0.1
   vertex 0.0006119561195373535 0.029993757247924805 0.0
   vertex -0.0018348498344421388 0.029943836212158202 0.0
  endloop
 endfacet
 facet normal -0.1018230989575386 0.9948025345802307 0.0
  outer loop
   vertex -0.004269444942474366 0.029694643020629883 0.1
   vertex -0.0018348498344421388 0.029943836212158202 0.1
   vertex -0.0018348498344421388 0.029943836212158202 0.0
  endloop
 endfacet
 facet normal -0.1018230989575386 0.9948025345802307 0.0
  outer loop
   vertex -0.004269444942474366 0.029694643020629883 0.1
   vertex -0.0018348498344421388 0.029943836212158202 0.0
   vertex -0.004269444942474366 0.029694643020629883 0.0
  endloop
 endfacet
 facet normal -0.18256981670856476 0.9831928610801697 0.0
  outer loop
   vertex -0.006675628185272217 0.029247837066650392 0.1
   vertex -0.004269444942474366 0.029694643020629883 0.1
   vertex -0.004269444942474366 0.029694643020629883 0.0
  endloop
 endfacet
 facet normal -0.18256981670856476 0.9831928610801697 0.0
  outer loop
   vertex -0.006675628185272217 0.029247837066650392 0.1
   vertex -0.004269444942474366 0.029694643020629883 0.0
   vertex -0.006675628185272217 0.029247837066650392 0.0
  endloop
 endfacet
 facet normal -0.26210156083106995 0.9650403261184692 0.0
  outer loop
   vertex -0.009037385940551758 0.028606391906738284 0.1
   vertex -0.006675628185272217 0.029247837066650392 0.0
   vertex -0.009037385940551758 0.028606391906738284 0.0
  endloop
 endfacet
 facet normal -0.26210156083106995 0.9650403261184692 0.0
  outer loop
   vertex -0.009037385940551758 0.028606391906738284 0.1
   vertex -0.006675628185272217 0.029247837066650392 0.1
   vertex -0.006675628185272217 0.029247837066650392 0.0
  endloop
 endfacet
 facet normal -0.33988919854164124 0.94046550989151 0.0
  outer loop
   vertex -0.011339000701904297 0.02777457618713379 0.1
   vertex -0.009037385940551758 0.028606391906738284 0.0
   vertex -0.011339000701904297 0.02777457618713379 0.0
  endloop
 endfacet
 facet normal -0.33988919854164124 0.94046550989151 0.0
  outer loop
   vertex -0.011339000701904297 0.02777457618713379 0.1
   vertex -0.009037385940551758 0.028606391906738284 0.1
   vertex -0.009037385940551758 0.028606391906738284 0.0
  endloop
 endfacet
 facet normal -0.41541486978530884 0.9096320271492004 0.0
  outer loop
   vertex -0.013565156936645508 0.026757925033569337 0.1
   vertex -0.011339000701904297 0.02777457618713379 0.0
   vertex -0.013565156936645508 0.026757925033569337 0.0
  endloop
 endfacet
 facet normal -0.41541486978530884 0.9096320271492004 0.0
  outer loop
   vertex -0.013565156936645508 0.026757925033569337 0.1
   vertex -0.011339000701904297 0.02777457618713379 0.1
   vertex -0.011339000701904297 0.02777457618713379 0.0
  endloop
 endfacet
 facet normal -0.48817625641822815 0.8727450966835022 0.0
  outer loop
   vertex -0.01570103931427002 0.025563203811645507 0.1
   vertex -0.013565156936645508 0.026757925033569337 0.0
   vertex -0.01570103931427002 0.025563203811645507 0.0
  endloop
 endfacet
 facet normal -0.48817625641822815 0.8727450966835022 0.0
  outer loop
   vertex -0.01570103931427002 0.025563203811645507 0.1
   vertex -0.013565156936645508 0.026757925033569337 0.1
   vertex -0.013565156936645508 0.026757925033569337 0.0
  endloop
 endfacet
 facet normal -0.5576891899108887 0.8300498723983765 0.0
  outer loop
   vertex -0.017732433319091797 0.024198362350463867 0.1
   vertex -0.01570103931427002 0.025563203811645507 0.0
   vertex -0.017732433319091797 0.024198362350463867 0.0
  endloop
 endfacet
 facet normal -0.5576891899108887 0.8300498723983765 0.0
  outer loop
   vertex -0.017732433319091797 0.024198362350463867 0.1
   vertex -0.01570103931427002 0.025563203811645507 0.1
   vertex -0.01570103931427002 0.025563203811645507 0.0
  endloop
 endfacet
 facet normal -0.6234893202781677 0.7818318605422974 0.0
  outer loop
   vertex -0.019645822525024413 0.022672487258911134 0.1
   vertex -0.017732433319091797 0.024198362350463867 0.0
   vertex -0.019645822525024413 0.022672487258911134 0.0
  endloop
 endfacet
 facet normal -0.6234893202781677 0.7818318605422974 0.0
  outer loop
   vertex -0.019645822525024413 0.022672487258911134 0.1
   vertex -0.017732433319091797 0.024198362350463867 0.1
   vertex -0.017732433319091797 0.024198362350463867 0.0
  endloop
 endfacet
 facet normal -0.6851418018341064 0.7284097075462341 0.0
  outer loop
   vertex -0.021428470611572267 0.020995729446411135 0.1
   vertex -0.019645822525024413 0.022672487258911134 0.0
   vertex -0.021428470611572267 0.020995729446411135 0.0
  endloop
 endfacet
 facet normal -0.6851418018341064 0.7284097075462341 0.0
  outer loop
   vertex -0.021428470611572267 0.020995729446411135 0.1
   vertex -0.019645822525024413 0.022672487258911134 0.1
   vertex -0.019645822525024413 0.022672487258911134 0.0
  endloop
 endfacet
 facet normal -0.7422341108322144 0.6701405644416809 0.0
  outer loop
   vertex -0.02306851577758789 0.019179248809814455 0.1
   vertex -0.021428470611572267 0.020995729446411135 0.0
   vertex -0.02306851577758789 0.019179248809814455 0.0
  endloop
 endfacet
 facet normal -0.7422341108322144 0.6701405644416809 0.0
  outer loop
   vertex -0.02306851577758789 0.019179248809814455 0.1
   vertex -0.021428470611572267 0.020995729446411135 0.1
   vertex -0.021428470611572267 0.020995729446411135 0.0
  endloop
 endfacet
 facet normal -0.7943872213363647 0.6074116826057434 0.0
  outer loop
   vertex -0.024555044174194338 0.017235132217407228 0.1
   vertex -0.02306851577758789 0.019179248809814455 0.0
   vertex -0.024555044174194338 0.017235132217407228 0.0
  endloop
 endfacet
 facet normal -0.7943872213363647 0.6074116826057434 0.0
  outer loop
   vertex -0.024555044174194338 0.017235132217407228 0.1
   vertex -0.02306851577758789 0.019179248809814455 0.1
   vertex -0.02306851577758789 0.019179248809814455 0.0
  endloop
 endfacet
 facet normal -0.8412534594535828 0.5406410098075867 0.0
  outer loop
   vertex -0.025878162384033204 0.015176321029663086 0.1
   vertex -0.024555044174194338 0.017235132217407228 0.0
   vertex -0.025878162384033204 0.015176321029663086 0.0
  endloop
 endfacet
 facet normal -0.8412534594535828 0.5406410098075867 0.0
  outer loop
   vertex -0.025878162384033204 0.015176321029663086 0.1
   vertex -0.024555044174194338 0.017235132217407228 0.1
   vertex -0.024555044174194338 0.017235132217407228 0.0
  endloop
 endfacet
 facet normal -0.8825216293334961 0.4702718257904053 0.0
  outer loop
   vertex -0.02702906608581543 0.013016511917114258 0.1
   vertex -0.025878162384033204 0.015176321029663086 0.0
   vertex -0.02702906608581543 0.013016511917114258 0.0
  endloop
 endfacet
 facet normal -0.8825216293334961 0.4702718257904053 0.0
  outer loop
   vertex -0.02702906608581543 0.013016511917114258 0.1
   vertex -0.025878162384033204 0.015176321029663086 0.1
   vertex -0.025878162384033204 0.015176321029663086 0.0
  endloop
 endfacet
 facet normal -0.9179165959358215 0.3967732787132263 0.0
  outer loop
   vertex -0.02800009536743164 0.01077008056640625 0.1
   vertex -0.02702906608581543 0.013016511917114258 0.0
   vertex -0.02800009536743164 0.01077008056640625 0.0
  endloop
 endfacet
 facet normal -0.9179165959358215 0.3967732787132263 0.0
  outer loop
   vertex -0.02800009536743164 0.01077008056640625 0.1
   vertex -0.02702906608581543 0.013016511917114258 0.1
   vertex -0.02702906608581543 0.013016511917114258 0.0
  endloop
 endfacet
 facet normal -0.9472028613090515 0.3206349313259125 0.0
  outer loop
   vertex -0.0287847900390625 0.008451976776123048 0.1
   vertex -0.02800009536743164 0.01077008056640625 0.0
   vertex -0.0287847900390625 0.008451976776123048 0.0
  endloop
 endfacet
 facet normal -0.9472028613090515 0.3206349313259125 0.0
  outer loop
   vertex -0.0287847900390625 0.008451976776123048 0.1
   vertex -0.02800009536743164 0.01077008056640625 0.1
   vertex -0.02800009536743164 0.01077008056640625 0.0
  endloop
 endfacet
 facet normal -0.9701861143112183 0.24236108362674713 0.0
  outer loop
   vertex -0.029377923965454102 0.006077625751495361 0.1
   vertex -0.0287847900390625 0.008451976776123048 0.1
   vertex -0.0287847900390625 0.008451976776123048 0.0
  endloop
 endfacet
 facet normal -0.9701861143112183 0.24236108362674713 0.0
  outer loop
   vertex -0.029377923965454102 0.006077625751495361 0.1
   vertex -0.0287847900390625 0.008451976776123048 0.0
   vertex -0.029377923965454102 0.006077625751495361 0.0
  endloop
 endfacet
 facet normal -0.9867124557495117 0.1624763011932373 0.0
  outer loop
   vertex -0.029775554656982423 0.003662829399108887 0.1
   vertex -0.029377923965454102 0.006077625751495361 0.1
   vertex -0.029377923965454102 0.006077625751495361 0.0
  endloop
 endfacet
 facet normal -0.9867124557495117 0.1624763011932373 0.0
  outer loop
   vertex -0.029775554656982423 0.003662829399108887 0.1
   vertex -0.029377923965454102 0.006077625751495361 0.0
   vertex -0.029775554656982423 0.003662829399108887 0.0
  endloop
 endfacet
 facet normal -0.9966725707054138 0.08150975406169891 0.0
  outer loop
   vertex -0.029975034713745116 0.0012236576080322265 0.1
   vertex -0.029775554656982423 0.003662829399108887 0.1
   vertex -0.029775554656982423 0.003662829399108887 0.0
  endloop
 endfacet
 facet normal -0.9966725707054138 0.08150975406169891 0.0
  outer loop
   vertex -0.029975034713745116 0.0012236576080322265 0.1
   vertex -0.029775554656982423 0.003662829399108887 0.0
   vertex -0.029975034713745116 0.0012236576080322265 0.0
  endloop
 endfacet
 facet normal -1.0 0.0 0.0
  outer loop
   vertex -0.029975034713745116 -0.0012236576080322265 0.1
   vertex -0.029975034713745116 0.0012236576080322265 0.1
   vertex -0.029975034713745116 0.0012236576080322265 0.0
  endloop
 endfacet
 facet normal -1.0 0.0 0.0
  outer loop
   vertex -0.029975034713745116 -0.0012236576080322265 0.1
   vertex -0.029975034713745116 0.0012236576080322265 0.0
   vertex -0.029975034713745116 -0.0012236576080322265 0.0
  endloop
 endfacet
 facet normal -0.9966725707054138 -0.08150975406169891 -0.0
  outer loop
   vertex -0.029775554656982423 -0.003662829399108887 0.1
   vertex -0.029975034713745116 -0.0012236576080322265 0.0
   vertex -0.029775554656982423 -0.003662829399108887 0.0
  endloop
 endfacet
 facet normal -0.9966725707054138 -0.08150975406169891 0.0
  outer loop
   vertex -0.029775554656982423 -0.003662829399108887 0.1
   vertex -0.029975034713745116 -0.0012236576080322265 0.1
   vertex -0.029975034713745116 -0.0012236576080322265 0.0
  endloop
 endfacet
 facet normal -0.9867124557495117 -0.1624763011932373 -0.0
  outer loop
   vertex -0.029377923965454102 -0.006077625751495361 0.1
   vertex -0.029775554656982423 -0.003662829399108887 0.0
   vertex -0.029377923965454102 -0.006077625751495361 0.0
  endloop
 endfacet
 facet normal -0.9867124557495117 -0.1624763011932373 0.0
  outer loop
   vertex -0.029377923965454102 -0.006077625751495361 0.1
   vertex -0.029775554656982423 -0.003662829399108887 0.1
   vertex -0.029775554656982423 -0.003662829399108887 0.0
  endloop
 endfacet
 facet normal -0.9701861143112183 -0.24236108362674713 0.0
  outer loop
   vertex -0.0287847900390625 -0.008451976776123048 0.1
   vertex -0.029377923965454102 -0.006077625751495361 0.1
   vertex -0.029377923965454102 -0.006077625751495361 0.0
  endloop
 endfacet
 facet normal -0.9701861143112183 -0.24236108362674713 -0.0
  outer loop
   vertex -0.0287847900390625 -0.008451976776123048 0.1
   vertex -0.029377923965454102 -0.006077625751495361 0.0
   vertex -0.0287847900390625 -0.008451976776123048 0.0
  endloop
 endfacet
 facet normal -0.9472028613090515 -0.3206349313259125 -0.0
  outer loop
   vertex -0.02800009536743164 -0.01077008056640625 0.1
   vertex -0.0287847900390625 -0.008451976776123048 0.0
   vertex -0.02800009536743164 -0.01077008056640625 0.0
  endloop
 endfacet
 facet normal -0.9472028613090515 -0.3206349313259125 0.0
  outer loop
   vertex -0.02800009536743164 -0.01077008056640625 0.1
   vertex -0.0287847900390625 -0.008451976776123048 0.1
   vertex -0.0287847900390625 -0.008451976776123048 0.0
  endloop
 endfacet
 facet normal -0.9179165959358215 -0.3967732787132263 -0.0
  outer loop
   vertex -0.02702906608581543 -0.013016511917114258 0.1
   vertex -0.02800009536743164 -0.01077008056640625 0.0
   vertex -0.02702906608581543 -0.013016511917114258 0.0
  endloop
 endfacet
 facet normal -0.9179165959358215 -0.3967732787132263 0.0
  outer loop
   vertex -0.02702906608581543 -0.013016511917114258 0.1
   vertex -0.02800009536743164 -0.01077008056640625 0.1
   vertex -0.02800009536743164 -0.01077008056640625 0.0
  endloop
 endfacet
 facet normal -0.8825216293334961 -0.4702718257904053 -0.0
  outer loop
   vertex -0.025878162384033204 -0.015176321029663086 0.1
   vertex -0.02702906608581543 -0.013016511917114258 0.0
   vertex -0.025878162384033204 -0.015176321029663086 0.0
  endloop
 endfacet
 facet normal -0.8825216293334961 -0.4702718257904053 0.0
  outer loop
   vertex -0.025878162384033204 -0.015176321029663086 0.1
   vertex -0.02702906608581543 -0.013016511917114258 0.1
   vertex -0.02702906608581543 -0.013016511917114258 0.0
  endloop
 endfacet
 facet normal -0.8412534594535828 -0.5406410098075867 -0.0
  outer loop
   vertex -0.024555044174194338 -0.017235132217407228 0.1
   vertex -0.025878162384033204 -0.015176321029663086 0.0
   vertex -0.024555044174194338 -0.017235132217407228 0.0
  endloop
 endfacet
 facet normal -0.8412534594535828 -0.5406410098075867 0.0
  outer loop
   vertex -0.024555044174194338 -0.017235132217407228 0.1
   vertex -0.025878162384033204 -0.015176321029663086 0.1
   vertex -0.025878162384033204 -0.015176321029663086 0.0
  endloop
 endfacet
 facet normal -0.7943872213363647 -0.6074116826057434 -0.0
  outer loop
   vertex -0.02306851577758789 -0.019179248809814455 0.1
   vertex -0.024555044174194338 -0.017235132217407228 0.0
   vertex -0.02306851577758789 -0.019179248809814455 0.0
  endloop
 endfacet
 facet normal -0.7943872213363647 -0.6074116826057434 0.0
  outer loop
   vertex -0.02306851577758789 -0.019179248809814455 0.1
   vertex -0.024555044174194338 -0.017235132217407228 0.1
   vertex -0.024555044174194338 -0.017235132217407228 0.0
  endloop
 endfacet
 facet normal -0.7422341108322144 -0.6701405644416809 -0.0
  outer loop
   vertex -0.021428470611572267 -0.020995729446411135 0.1
   vertex -0.02306851577758789 -0.019179248809814455 0.0
   vertex -0.021428470611572267 -0.020995729446411135 0.0
  endloop
 endfacet
 facet normal -0.7422341108322144 -0.6701405644416809 0.0
  outer loop
   vertex -0.021428470611572267 -0.020995729446411135 0.1
   vertex -0.02306851577758789 -0.019179248809814455 0.1
   vertex -0.02306851577758789 -0.019179248809814455 0.0
  endloop
 endfacet
 facet normal -0.6851418018341064 -0.7284097075462341 -0.0
  outer loop
   vertex -0.019645822525024413 -0.022672487258911134 0.1
   vertex -0.021428470611572267 -0.020995729446411135 0.0
   vertex -0.019645822525024413 -0.022672487258911134 0.0
  endloop
 endfacet
 facet normal -0.6851418018341064 -0.7284097075462341 0.0
  outer loop
   vertex -0.019645822525024413 -0.022672487258911134 0.1
   vertex -0.021428470611572267 -0.020995729446411135 0.1
   vertex -0.021428470611572267 -0.020995729446411135 0.0
  endloop
 endfacet
 facet normal -0.6234893202781677 -0.7818318605422974 -0.0
  outer loop
   vertex -0.017732433319091797 -0.024198362350463867 0.1
   vertex -0.019645822525024413 -0.022672487258911134 0.0
   vertex -0.017732433319091797 -0.024198362350463867 0.0
  endloop
 endfacet
 facet normal -0.6234893202781677 -0.7818318605422974 0.0
  outer loop
   vertex -0.017732433319091797 -0.024198362350463867 0.1
   vertex -0.019645822525024413 -0.022672487258911134 0.1
   vertex -0.019645822525024413 -0.022672487258911134 0.0
  endloop
 endfacet
 facet normal -0.5576891899108887 -0.8300498723983765 -0.0
  outer loop
   vertex -0.01570103931427002 -0.025563203811645507 0.1
   vertex -0.017732433319091797 -0.024198362350463867 0.0
   vertex -0.01570103931427002 -0.025563203811645507 0.0
  endloop
 endfacet
 facet normal -0.5576891899108887 -0.8300498723983765 0.0
  outer loop
   vertex -0.01570103931427002 -0.025563203811645507 0.1
   vertex -0.017732433319091797 -0.024198362350463867 0.1
   vertex -0.017732433319091797 -0.024198362350463867 0.0
  endloop
 endfacet
 facet normal -0.48817625641822815 -0.8727450966835022 -0.0
  outer loop
   vertex -0.013565156936645508 -0.026757925033569337 0.1
   vertex -0.01570103931427002 -0.025563203811645507 0.0
   vertex -0.013565156936645508 -0.026757925033569337 0.0
  endloop
 endfacet
 facet normal -0.48817625641822815 -0.8727450966835022 0.0
  outer loop
   vertex -0.013565156936645508 -0.026757925033569337 0.1
   vertex -0.01570103931427002 -0.025563203811645507 0.1
   vertex -0.01570103931427002 -0.025563203811645507 0.0
  endloop
 endfacet
 facet normal -0.41541486978530884 -0.9096320271492004 -0.0
  outer loop
   vertex -0.011339000701904297 -0.02777457618713379 0.1
   vertex -0.013565156936645508 -0.026757925033569337 0.0
   vertex -0.011339000701904297 -0.02777457618713379 0.0
  endloop
 endfacet
 facet normal -0.41541486978530884 -0.9096320271492004 0.0
  outer loop
   vertex -0.011339000701904297 -0.02777457618713379 0.1
   vertex -0.013565156936645508 -0.026757925033569337 0.1
   vertex -0.013565156936645508 -0.026757925033569337 0.0
  endloop
 endfacet
 facet normal -0.33988919854164124 -0.94046550989151 -0.0
  outer loop
   vertex -0.009037385940551758 -0.028606391906738284 0.1
   vertex -0.011339000701904297 -0.02777457618713379 0.0
   vertex -0.009037385940551758 -0.028606391906738284 0.0
  endloop
 endfacet
 facet normal -0.33988919854164124 -0.94046550989151 0.0
  outer loop
   vertex -0.009037385940551758 -0.028606391906738284 0.1
   vertex -0.011339000701904297 -0.02777457618713379 0.1
   vertex -0.011339000701904297 -0.02777457618713379 0.0
  endloop
 endfacet
 facet normal -0.26210156083106995 -0.9650403261184692 -0.0
  outer loop
   vertex -0.006675628185272217 -0.029247837066650392 0.1
   vertex -0.009037385940551758 -0.028606391906738284 0.0
   vertex -0.006675628185272217 -0.029247837066650392 0.0
  endloop
 endfacet
 facet normal -0.26210156083106995 -0.9650403261184692 0.0
  outer loop
   vertex -0.006675628185272217 -0.029247837066650392 0.1
   vertex -0.009037385940551758 -0.028606391906738284 0.1
   vertex -0.009037385940551758 -0.028606391906738284 0.0
  endloop
 endfacet
 facet normal -0.18256981670856476 -0.9831928610801697 -0.0
  outer loop
   vertex -0.004269444942474366 -0.029694643020629883 0.1
   vertex -0.006675628185272217 -0.029247837066650392 0.0
   vertex -0.004269444942474366 -0.029694643020629883 0.0
  endloop
 endfacet
 facet normal -0.18256981670856476 -0.9831928610801697 0.0
  outer loop
   vertex -0.004269444942474366 -0.029694643020629883 0.1
   vertex -0.006675628185272217 -0.029247837066650392 0.1
   vertex -0.006675628185272217 -0.029247837066650392 0.0
  endloop
 endfacet
 facet normal -0.1018230989575386 -0.9948025345802307 -0.0
  outer loop
   vertex -0.0018348498344421388 -0.029943836212158202 0.1
   vertex -0.004269444942474366 -0.029694643020629883 0.0
   vertex -0.0018348498344421388 -0.029943836212158202 0.0
  endloop
 endfacet
 facet normal -0.1018230989575386 -0.9948025345802307 0.0
  outer loop
   vertex -0.0018348498344421388 -0.029943836212158202 0.1
   vertex -0.004269444942474366 -0.029694643020629883 0.1
   vertex -0.004269444942474366 -0.029694643020629883 0.0
  endloop
 endfacet
 facet normal -0.02039828523993492 -0.9997919201850891 -0.0
  outer loop
   vertex 0.0006119561195373535 -0.029993757247924805 0.1
   vertex -0.0018348498344421388 -0.029943836212158202 0.0
   vertex 0.0006119561195373535 -0.029993757247924805 0.0
  endloop
 endfacet
 facet normal -0.02039828523993492 -0.9997919201850891 0.0
  outer loop
   vertex 0.0006119561195373535 -0.029993757247924805 0.1
   vertex -0.0018348498344421388 -0.029943836212158202 0.1
   vertex -0.0018348498344421388 -0.029943836212158202 0.0
  endloop
 endfacet
 facet normal 0.0611613504588604 -0.9981278777122498 0.0
  outer loop
   vertex 0.003054689645767212 -0.02984407615661621 0.1
   vertex 0.0006119561195373535 -0.029993757247924805 0.0
   vertex 0.003054689645767212 -0.02984407615661621 0.0
  endloop
 endfacet
 facet normal 0.0611613504588604 -0.9981278777122498 0.0
  outer loop
   vertex 0.003054689645767212 -0.02984407615661621 0.1
   vertex 0.0006119561195373535 -0.029993757247924805 0.1
   vertex 0.0006119561195373535 -0.029993757247924805 0.0
  endloop
 endfacet
 facet normal 0.14231494069099426 -0.9898214340209961 0.0
  outer loop
   vertex 0.005477094650268555 -0.029495786666870118 0.1
   vertex 0.003054689645767212 -0.02984407615661621 0.0
   vertex 0.005477094650268555 -0.029495786666870118 0.0
  endloop
 endfacet
 facet normal 0.14231494069099426 -0.9898214340209961 0.0
  outer loop
   vertex 0.005477094650268555 -0.029495786666870118 0.1
   vertex 0.003054689645767212 -0.02984407615661621 0.1
   vertex 0.003054689645767212 -0.02984407615661621 0.0
  endloop
 endfacet
 facet normal 0.22252081334590912 -0.9749279022216797 0.0
  outer loop
   vertex 0.007863050460815429 -0.028951208114624025 0.1
   vertex 0.005477094650268555 -0.029495786666870118 0.0
   vertex 0.007863050460815429 -0.028951208114624025 0.0
  endloop
 endfacet
 facet normal 0.22252081334590912 -0.9749279022216797 0.0
  outer loop
   vertex 0.007863050460815429 -0.028951208114624025 0.1
   vertex 0.005477094650268555 -0.029495786666870118 0.1
   vertex 0.005477094650268555 -0.029495786666870118 0.0
  endloop
 endfacet
 facet normal 0.30124661326408386 -0.9535462260246277 0.0
  outer loop
   vertex 0.01019667911529541 -0.02821396255493164 0.1
   vertex 0.007863050460815429 -0.028951208114624025 0.1
   vertex 0.007863050460815429 -0.028951208114624025 0.0
  endloop
 endfacet
 facet normal 0.30124661326408386 -0.9535462260246277 0.0
  outer loop
   vertex 0.01019667911529541 -0.02821396255493164 0.1
   vertex 0.007863050460815429 -0.028951208114624025 0.0
   vertex 0.01019667911529541 -0.02821396255493164 0.0
  endloop
 endfacet
 facet normal 0.3779665529727936 -0.9258192181587219 0.0
  outer loop
   vertex 0.012462450027465821 -0.027288959503173827 0.1
   vertex 0.01019667911529541 -0.02821396255493164 0.1
   vertex 0.01019667911529541 -0.02821396255493164 0.0
  endloop
 endfacet
 facet normal 0.3779665529727936 -0.9258192181587219 0.0
  outer loop
   vertex 0.012462450027465821 -0.027288959503173827 0.1
   vertex 0.01019667911529541 -0.02821396255493164 0.0
   vertex 0.012462450027465821 -0.027288959503173827 0.0
  endloop
 endfacet
 facet normal 0.45217186212539673 -0.8919308185577393 0.0
  outer loop
   vertex 0.014645286560058594 -0.02618235206604004 0.1
   vertex 0.012462450027465821 -0.027288959503173827 0.1
   vertex 0.012462450027465821 -0.027288959503173827 0.0
  endloop
 endfacet
 facet normal 0.45217186212539673 -0.8919308185577393 0.0
  outer loop
   vertex 0.014645286560058594 -0.02618235206604004 0.1
   vertex 0.012462450027465821 -0.027288959503173827 0.0
   vertex 0.014645286560058594 -0.02618235206604004 0.0
  endloop
 endfacet
 facet normal 0.5233679413795471 -0.8521068096160889 0.0
  outer loop
   vertex 0.01673065948486328 -0.024901506423950195 0.1
   vertex 0.014645286560058594 -0.02618235206604004 0.1
   vertex 0.014645286560058594 -0.02618235206604004 0.0
  endloop
 endfacet
 facet normal 0.5233679413795471 -0.8521068096160889 0.0
  outer loop
   vertex 0.01673065948486328 -0.024901506423950195 0.1
   vertex 0.014645286560058594 -0.02618235206604004 0.0
   vertex 0.01673065948486328 -0.024901506423950195 0.0
  endloop
 endfacet
 facet normal 0.591080904006958 -0.8066122531890869 0.0
  outer loop
   vertex 0.018704694747924806 -0.023454944610595704 0.1
   vertex 0.01673065948486328 -0.024901506423950195 0.1
   vertex 0.01673065948486328 -0.024901506423950195 0.0
  endloop
 endfacet
 facet normal 0.591080904006958 -0.8066122531890869 0.0
  outer loop
   vertex 0.018704694747924806 -0.023454944610595704 0.1
   vertex 0.01673065948486328 -0.024901506423950195 0.0
   vertex 0.018704694747924806 -0.023454944610595704 0.0
  endloop
 endfacet
 facet normal 0.6548612117767334 -0.7557490468025208 0.0
  outer loop
   vertex 0.020554250717163085 -0.021852293014526368 0.1
   vertex 0.018704694747924806 -0.023454944610595704 0.1
   vertex 0.018704694747924806 -0.023454944610595704 0.0
  endloop
 endfacet
 facet normal 0.6548612117767334 -0.7557490468025208 0.0
  outer loop
   vertex 0.020554250717163085 -0.021852293014526368 0.1
   vertex 0.018704694747924806 -0.023454944610595704 0.0
   vertex 0.020554250717163085 -0.021852293014526368 0.0
  endloop
 endfacet
 facet normal 0.714282214641571 -0.6998577117919922 0.0
  outer loop
   vertex 0.022267023086547853 -0.020104219436645508 0.1
   vertex 0.020554250717163085 -0.021852293014526368 0.1
   vertex 0.020554250717163085 -0.021852293014526368 0.0
  endloop
 endfacet
 facet normal 0.714282214641571 -0.6998577117919922 0.0
  outer loop
   vertex 0.022267023086547853 -0.020104219436645508 0.1
   vertex 0.020554250717163085 -0.021852293014526368 0.0
   vertex 0.022267023086547853 -0.020104219436645508 0.0
  endloop
 endfacet
 facet normal 0.7689506411552429 -0.6393081545829773 0.0
  outer loop
   vertex 0.023831611633300782 -0.018222354888916017 0.1
   vertex 0.022267023086547853 -0.020104219436645508 0.1
   vertex 0.022267023086547853 -0.020104219436645508 0.0
  endloop
 endfacet
 facet normal 0.7689506411552429 -0.6393081545829773 0.0
  outer loop
   vertex 0.023831611633300782 -0.018222354888916017 0.1
   vertex 0.022267023086547853 -0.020104219436645508 0.0
   vertex 0.023831611633300782 -0.018222354888916017 0.0
  endloop
 endfacet
 facet normal 0.8185011148452759 -0.5745049118995667 0.0
  outer loop
   vertex 0.025237606048583983 -0.01621922492980957 0.1
   vertex 0.023831611633300782 -0.018222354888916017 0.1
   vertex 0.023831611633300782 -0.018222354888916017 0.0
  endloop
 endfacet
 facet normal 0.8185011148452759 -0.5745049118995667 0.0
  outer loop
   vertex 0.025237606048583983 -0.01621922492980957 0.1
   vertex 0.023831611633300782 -0.018222354888916017 0.0
   vertex 0.025237606048583983 -0.01621922492980957 0.0
  endloop
 endfacet
 facet normal 0.8626055717468262 -0.5058771371841431 0.0
  outer loop
   vertex 0.02647564697265625 -0.01410815715789795 0.1
   vertex 0.025237606048583983 -0.01621922492980957 0.1
   vertex 0.025237606048583983 -0.01621922492980957 0.0
  endloop
 endfacet
 facet normal 0.8626055717468262 -0.5058771371841431 0.0
  outer loop
   vertex 0.02647564697265625 -0.01410815715789795 0.1
   vertex 0.025237606048583983 -0.01621922492980957 0.0
   vertex 0.02647564697265625 -0.01410815715789795 0.0
  endloop
 endfacet
 facet normal 0.9009687304496765 -0.4338841140270233 0.0
  outer loop
   vertex 0.027537498474121094 -0.011903202056884766 0.1
   vertex 0.02647564697265625 -0.01410815715789795 0.1
   vertex 0.02647564697265625 -0.01410815715789795 0.0
  endloop
 endfacet
 facet normal 0.9009687304496765 -0.4338841140270233 0.0
  outer loop
   vertex 0.027537498474121094 -0.011903202056884766 0.1
   vertex 0.02647564697265625 -0.01410815715789795 0.0
   vertex 0.027537498474121094 -0.011903202056884766 0.0
  endloop
 endfacet
 facet normal 0.9333366751670837 -0.35900232195854187 0.0
  outer loop
   vertex 0.02841609001159668 -0.009619033813476563 0.1
   vertex 0.027537498474121094 -0.011903202056884766 0.0
   vertex 0.02841609001159668 -0.009619033813476563 0.0
  endloop
 endfacet
 facet normal 0.9333366751670837 -0.35900232195854187 0.0
  outer loop
   vertex 0.02841609001159668 -0.009619033813476563 0.1
   vertex 0.027537498474121094 -0.011903202056884766 0.1
   vertex 0.027537498474121094 -0.011903202056884766 0.0
  endloop
 endfacet
 facet normal 0.9594928622245789 -0.2817329168319702 0.0
  outer loop
   vertex 0.029105579376220703 -0.007270852088928223 0.1
   vertex 0.02841609001159668 -0.009619033813476563 0.1
   vertex 0.02841609001159668 -0.009619033813476563 0.0
  endloop
 endfacet
 facet normal 0.9594928622245789 -0.2817329168319702 0.0
  outer loop
   vertex 0.029105579376220703 -0.007270852088928223 0.1
   vertex 0.02841609001159668 -0.009619033813476563 0.0
   vertex 0.029105579376220703 -0.007270852088928223 0.0
  endloop
 endfacet
 facet normal 0.9792642593383789 -0.2025870531797409 0.0
  outer loop
   vertex 0.029601373672485352 -0.004874284267425537 0.1
   vertex 0.029105579376220703 -0.007270852088928223 0.0
   vertex 0.029601373672485352 -0.004874284267425537 0.0
  endloop
 endfacet
 facet normal 0.9792642593383789 -0.2025870531797409 0.0
  outer loop
   vertex 0.029601373672485352 -0.004874284267425537 0.1
   vertex 0.029105579376220703 -0.007270852088928223 0.1
   vertex 0.029105579376220703 -0.007270852088928223 0.0
  endloop
 endfacet
 facet normal 0.9925184845924377 -0.12209432572126389 0.0
  outer loop
   vertex 0.029900177001953125 -0.0024452784061431885 0.1
   vertex 0.029601373672485352 -0.004874284267425537 0.0
   vertex 0.029900177001953125 -0.0024452784061431885 0.0
  endloop
 endfacet
 facet normal 0.9925184845924377 -0.12209432572126389 0.0
  outer loop
   vertex 0.029900177001953125 -0.0024452784061431885 0.1
   vertex 0.029601373672485352 -0.004874284267425537 0.1
   vertex 0.029601373672485352 -0.004874284267425537 0.0
  endloop
 endfacet
 facet normal 0.999167799949646 -0.04078878089785576 0.0
  outer loop
   vertex 0.03 -7.000000131271574e-18 0.1
   vertex 0.029900177001953125 -0.0024452784061431885 0.0
   vertex 0.03 -7.000000131271574e-18 0.0
  endloop
 endfacet
 facet normal 0.999167799949646 -0.04078878089785576 0.0
  outer loop
   vertex 0.03 -7.000000131271574e-18 0.1
   vertex 0.029900177001953125 -0.0024452784061431885 0.1
   vertex 0.029900177001953125 -0.0024452784061431885 0.0
  endloop
 endfacet
endsolid patch_1_0
solid patch_2_0
 facet normal 0.0 -0.0 -1.0
  outer loop
   vertex -0.013565156936645508 0.026757925033569337 0.0
   vertex 0.0006119561195373535 0.029993757247924805 0.0
   vertex -0.017732433319091797 0.024198362350463867 0.0
  endloop
 endfacet
 facet normal 0.0 0.0 -1.0
  outer loop
   vertex 0.01019667911529541 -0.02821396255493164 0.0
   vertex 0.014645286560058594 -0.02618235206604004 0.0
   vertex 0.012462450027465821 -0.027288959503173827 0.0
  endloop
 endfacet
 facet normal 0.0 -0.0 -1.0
  outer loop
   vertex -0.0018348498344421388 0.029943836212158202 0.0
   vertex 0.0006119561195373535 0.029993757247924805 0.0
   vertex -0.013565156936645508 0.026757925033569337 0.0
  endloop
 endfacet
 facet normal 0.0 0.0 -1.0
  outer loop
   vertex 0.029105579376220703 -0.007270852088928223 0.0
   vertex 0.029900177001953125 0.0024452784061431885 0.0
   vertex 0.03 -7.000000131271574e-18 0.0
  endloop
 endfacet
 facet normal 0.0 -0.0 -1.0
  outer loop
   vertex -0.02702906608581543 0.013016511917114258 0.0
   vertex -0.025878162384033204 0.015176321029663086 0.0
   vertex -0.02800009536743164 0.01077008056640625 0.0
  endloop
 endfacet
 facet normal 0.0 0.0 -1.0
  outer loop
   vertex -0.009037385940551758 -0.028606391906738284 0.0
   vertex 0.003054689645767212 0.02984407615661621 0.0
   vertex 0.0006119561195373535 -0.029993757247924805 0.0
  endloop
 endfacet
 facet normal 0.0 -0.0 -1.0
  outer loop
   vertex -0.017732433319091797 0.024198362350463867 0.0
   vertex 0.003054689645767212 0.02984407615661621 0.0
   vertex -0.021428470611572267 0.020995729446411135 0.0
  endloop
 endfacet
 facet normal 0.0 0.0 -1.0
  outer loop
   vertex -0.021428470611572267 0.020995729446411135 0.0
   vertex 0.003054689645767212 0.02984407615661621 0.0
   vertex -0.009037385940551758 -0.028606391906738284 0.0
  endloop
 endfacet
 facet normal 0.0 -0.0 -1.0
  outer loop
   vertex 0.0006119561195373535 0.029993757247924805 0.0
   vertex 0.003054689645767212 0.02984407615661621 0.0
   vertex -0.017732433319091797 0.024198362350463867 0.0
  endloop
 endfacet
 facet normal 0.0 -0.0 -1.0
  outer loop
   vertex -0.025878162384033204 0.015176321029663086 0.0
   vertex -0.024555044174194338 0.017235132217407228 0.0
   vertex -0.02800009536743164 0.01077008056640625 0.0
  endloop
 endfacet
 facet normal 0.0 0.0 -1.0
  outer loop
   vertex -0.019645822525024413 -0.022672487258911134 0.0
   vertex -0.01570103931427002 -0.025563203811645507 0.0
   vertex -0.017732433319091797 -0.024198362350463867 0.0
  endloop
 endfacet
 facet normal 0.0 0.0 -1.0
  outer loop
   vertex 0.029105579376220703 -0.007270852088928223 0.0
   vertex 0.029601373672485352 0.004874284267425537 0.0
   vertex 0.029900177001953125 0.0024452784061431885 0.0
  endloop
 endfacet
 facet normal 0.0 0.0 -1.0
  outer loop
   vertex 0.014645286560058594 -0.02618235206604004 0.0
   vertex 0.018704694747924806 -0.023454944610595704 0.0
   vertex 0.01673065948486328 -0.024901506423950195 0.0
  endloop
 endfacet
 facet normal 0.0 0.0 -1.0
  outer loop
   vertex -0.024555044174194338 -0.017235132217407228 0.0
   vertex -0.025878162384033204 -0.015176321029663086 0.0
   vertex -0.02306851577758789 -0.019179248809814455 0.0
  endloop
 endfacet
 facet normal 0.0 0.0 -1.0
  outer loop
   vertex -0.02306851577758789 -0.019179248809814455 0.0
   vertex -0.025878162384033204 -0.015176321029663086 0.0
   vertex -0.021428470611572267 -0.020995729446411135 0.0
  endloop
 endfacet
 facet normal 0.0 0.0 -1.0
  outer loop
   vertex 0.0006119561195373535 -0.029993757247924805 0.0
   vertex 0.005477094650268555 0.029495786666870118 0.0
   vertex 0.01019667911529541 -0.02821396255493164 0.0
  endloop
 endfacet
 facet normal 0.0 -0.0 -1.0
  outer loop
   vertex 0.003054689645767212 0.02984407615661621 0.0
   vertex 0.005477094650268555 0.029495786666870118 0.0
   vertex 0.0006119561195373535 -0.029993757247924805 0.0
  endloop
 endfacet
 facet normal 0.0 -0.0 -1.0
  outer loop
   vertex -0.024555044174194338 0.017235132217407228 0.0
   vertex -0.02306851577758789 0.019179248809814455 0.0
   vertex -0.02800009536743164 0.01077008056640625 0.0
  endloop
 endfacet
 facet normal 0.0 -0.0 -1.0
  outer loop
   vertex -0.02800009536743164 0.01077008056640625 0.0
   vertex -0.02306851577758789 0.019179248809814455 0.0
   vertex -0.0287847900390625 0.008451976776123048 0.0
  endloop
 endfacet
 facet normal 0.0 0.0 -1.0
  outer loop
   vertex 0.005477094650268555 0.029495786666870118 0.0
   vertex 0.007863050460815429 0.028951208114624025 0.0
   vertex 0.01019667911529541 -0.02821396255493164 0.0
  endloop
 endfacet
 facet normal 0.0 0.0 -1.0
  outer loop
   vertex 0.01019667911529541 -0.02821396255493164 0.0
   vertex 0.007863050460815429 0.028951208114624025 0.0
   vertex 0.014645286560058594 -0.02618235206604004 0.0
  endloop
 endfacet
 facet normal 0.0 0.0 -1.0
  outer loop
   vertex -0.0287847900390625 -0.008451976776123048 0.0
   vertex -0.021428470611572267 0.020995729446411135 0.0
   vertex -0.009037385940551758 -0.028606391906738284 0.0
  endloop
 endfacet
 facet normal 0.0 -0.0 -1.0
  outer loop
   vertex -0.02306851577758789 0.019179248809814455 0.0
   vertex -0.021428470611572267 0.020995729446411135 0.0
   vertex -0.0287847900390625 0.008451976776123048 0.0
  endloop
 endfacet
 facet normal 0.0 -0.0 -1.0
  outer loop
   vertex -0.0287847900390625 0.008451976776123048 0.0
   vertex -0.021428470611572267 0.020995729446411135 0.0
   vertex -0.029975034713745116 -0.0012236576080322265 0.0
  endloop
 endfacet
 facet normal 0.0 0.0 -1.0
  outer loop
   vertex -0.029975034713745116 -0.0012236576080322265 0.0
   vertex -0.021428470611572267 0.020995729446411135 0.0
   vertex -0.0287847900390625 -0.008451976776123048 0.0
  endloop
 endfacet
 facet normal 0.0 0.0 -1.0
  outer loop
   vertex 0.029601373672485352 0.004874284267425537 0.0
   vertex 0.027537498474121094 0.011903202056884766 0.0
   vertex 0.029105579376220703 0.007270852088928223 0.0
  endloop
 endfacet
 facet normal 0.0 0.0 -1.0
  outer loop
   vertex 0.029105579376220703 0.007270852088928223 0.0
   vertex 0.027537498474121094 0.011903202056884766 0.0
   vertex 0.02841609001159668 0.009619033813476563 0.0
  endloop
 endfacet
 facet normal 0.0 0.0 -1.0
  outer loop
   vertex 0.018704694747924806 -0.023454944610595704 0.0
   vertex 0.022267023086547853 -0.020104219436645508 0.0
   vertex 0.020554250717163085 -0.021852293014526368 0.0
  endloop
 endfacet
 facet normal 0.0 0.0 -1.0
  outer loop
   vertex -0.013565156936645508 -0.026757925033569337 0.0
   vertex -0.009037385940551758 -0.028606391906738284 0.0
   vertex -0.011339000701904297 -0.02777457618713379 0.0
  endloop
 endfacet
 facet normal -0.0 -0.0 -1.0
  outer loop
   vertex 0.01019667911529541 0.02821396255493164 0.0
   vertex 0.012462450027465821 0.027288959503173827 0.0
   vertex 0.007863050460815429 0.028951208114624025 0.0
  endloop
 endfacet
 facet normal 0.0 0.0 -1.0
  outer loop
   vertex 0.018704694747924806 -0.023454944610595704 0.0
   vertex 0.023831611633300782 -0.018222354888916017 0.0
   vertex 0.022267023086547853 -0.020104219436645508 0.0
  endloop
 endfacet
 facet normal 0.0 0.0 -1.0
  outer loop
   vertex 0.014645286560058594 -0.02618235206604004 0.0
   vertex 0.023831611633300782 -0.018222354888916017 0.0
   vertex 0.018704694747924806 -0.023454944610595704 0.0
  endloop
 endfacet
 facet normal 0.0 0.0 -1.0
  outer loop
   vertex -0.02800009536743164 -0.01077008056640625 0.0
   vertex -0.0287847900390625 -0.008451976776123048 0.0
   vertex -0.02702906608581543 -0.013016511917114258 0.0
  endloop
 endfacet
 facet normal 0.0 0.0 -1.0
  outer loop
   vertex -0.02702906608581543 -0.013016511917114258 0.0
   vertex -0.0287847900390625 -0.008451976776123048 0.0
   vertex -0.025878162384033204 -0.015176321029663086 0.0
  endloop
 endfacet
 facet normal 0.0 0.0 -1.0
  outer loop
   vertex -0.021428470611572267 -0.020995729446411135 0.0
   vertex -0.0287847900390625 -0.008451976776123048 0.0
   vertex -0.019645822525024413 -0.022672487258911134 0.0
  endloop
 endfacet
 facet normal 0.0 0.0 -1.0
  outer loop
   vertex -0.01570103931427002 -0.025563203811645507 0.0
   vertex -0.0287847900390625 -0.008451976776123048 0.0
   vertex -0.013565156936645508 -0.026757925033569337 0.0
  endloop
 endfacet
 facet normal 0.0 -0.0 -1.0
  outer loop
   vertex -0.019645822525024413 0.022672487258911134 0.0
   vertex -0.017732433319091797 0.024198362350463867 0.0
   vertex -0.021428470611572267 0.020995729446411135 0.0
  endloop
 endfacet
 facet normal 0.0 0.0 -1.0
  outer loop
   vertex -0.019645822525024413 -0.022672487258911134 0.0
   vertex -0.0287847900390625 -0.008451976776123048 0.0
   vertex -0.01570103931427002 -0.025563203811645507 0.0
  endloop
 endfacet
 facet normal -0.0 -0.0 -1.0
  outer loop
   vertex 0.012462450027465821 0.027288959503173827 0.0
   vertex 0.014645286560058594 0.02618235206604004 0.0
   vertex 0.007863050460815429 0.028951208114624025 0.0
  endloop
 endfacet
 facet normal 0.0 0.0 -1.0
  outer loop
   vertex -0.025878162384033204 -0.015176321029663086 0.0
   vertex -0.0287847900390625 -0.008451976776123048 0.0
   vertex -0.021428470611572267 -0.020995729446411135 0.0
  endloop
 endfacet
 facet normal 0.0 0.0 -1.0
  outer loop
   vertex -0.013565156936645508 -0.026757925033569337 0.0
   vertex -0.0287847900390625 -0.008451976776123048 0.0
   vertex -0.009037385940551758 -0.028606391906738284 0.0
  endloop
 endfacet
 facet normal -0.0 -0.0 -1.0
  outer loop
   vertex 0.014645286560058594 0.02618235206604004 0.0
   vertex 0.01673065948486328 0.024901506423950195 0.0
   vertex 0.007863050460815429 0.028951208114624025 0.0
  endloop
 endfacet
 facet normal 0.0 0.0 -1.0
  outer loop
   vertex 0.027537498474121094 0.011903202056884766 0.0
   vertex 0.023831611633300782 0.018222354888916017 0.0
   vertex 0.02647564697265625 0.01410815715789795 0.0
  endloop
 endfacet
 facet normal 0.0 0.0 -1.0
  outer loop
   vertex 0.02647564697265625 0.01410815715789795 0.0
   vertex 0.023831611633300782 0.018222354888916017 0.0
   vertex 0.025237606048583983 0.01621922492980957 0.0
  endloop
 endfacet
 facet normal 0.0 -0.0 -1.0
  outer loop
   vertex -0.01570103931427002 0.025563203811645507 0.0
   vertex -0.013565156936645508 0.026757925033569337 0.0
   vertex -0.017732433319091797 0.024198362350463867 0.0
  endloop
 endfacet
 facet normal 0.0 0.0 -1.0
  outer loop
   vertex -0.006675628185272217 -0.029247837066650392 0.0
   vertex -0.0018348498344421388 -0.029943836212158202 0.0
   vertex -0.004269444942474366 -0.029694643020629883 0.0
  endloop
 endfacet
 facet normal 0.0 0.0 -1.0
  outer loop
   vertex 0.029105579376220703 -0.007270852088928223 0.0
   vertex 0.022267023086547853 0.020104219436645508 0.0
   vertex 0.029601373672485352 0.004874284267425537 0.0
  endloop
 endfacet
 facet normal 0.0 0.0 -1.0
  outer loop
   vertex 0.007863050460815429 0.028951208114624025 0.0
   vertex 0.022267023086547853 0.020104219436645508 0.0
   vertex 0.014645286560058594 -0.02618235206604004 0.0
  endloop
 endfacet
 facet normal 0.0 0.0 -1.0
  outer loop
   vertex 0.027537498474121094 0.011903202056884766 0.0
   vertex 0.022267023086547853 0.020104219436645508 0.0
   vertex 0.023831611633300782 0.018222354888916017 0.0
  endloop
 endfacet
 facet normal -0.0 -0.0 -1.0
  outer loop
   vertex 0.01673065948486328 0.024901506423950195 0.0
   vertex 0.022267023086547853 0.020104219436645508 0.0
   vertex 0.007863050460815429 0.028951208114624025 0.0
  endloop
 endfacet
 facet normal 0.0 0.0 -1.0
  outer loop
   vertex -0.029775554656982423 -0.003662829399108887 0.0
   vertex -0.029975034713745116 -0.0012236576080322265 0.0
   vertex -0.029377923965454102 -0.006077625751495361 0.0
  endloop
 endfacet
 facet normal 0.0 0.0 -1.0
  outer loop
   vertex -0.029377923965454102 -0.006077625751495361 0.0
   vertex -0.029975034713745116 -0.0012236576080322265 0.0
   vertex -0.0287847900390625 -0.008451976776123048 0.0
  endloop
 endfacet
 facet normal 0.0 0.0 -1.0
  outer loop
   vertex 0.014645286560058594 -0.02618235206604004 0.0
   vertex 0.022267023086547853 0.020104219436645508 0.0
   vertex 0.029105579376220703 -0.007270852088928223 0.0
  endloop
 endfacet
 facet normal 0.0 0.0 -1.0
  outer loop
   vertex 0.023831611633300782 -0.018222354888916017 0.0
   vertex 0.027537498474121094 -0.011903202056884766 0.0
   vertex 0.025237606048583983 -0.01621922492980957 0.0
  endloop
 endfacet
 facet normal 0.0 0.0 -1.0
  outer loop
   vertex 0.029601373672485352 0.004874284267425537 0.0
   vertex 0.022267023086547853 0.020104219436645508 0.0
   vertex 0.027537498474121094 0.011903202056884766 0.0
  endloop
 endfacet
 facet normal 0.0 0.0 -1.0
  outer loop
   vertex 0.025237606048583983 -0.01621922492980957 0.0
   vertex 0.027537498474121094 -0.011903202056884766 0.0
   vertex 0.02647564697265625 -0.01410815715789795 0.0
  endloop
 endfacet
 facet normal -0.0 -0.0 -1.0
  outer loop
   vertex 0.018704694747924806 0.023454944610595704 0.0
   vertex 0.020554250717163085 0.021852293014526368 0.0
   vertex 0.01673065948486328 0.024901506423950195 0.0
  endloop
 endfacet
 facet normal 0.0 0.0 -1.0
  outer loop
   vertex -0.006675628185272217 -0.029247837066650392 0.0
   vertex 0.0006119561195373535 -0.029993757247924805 0.0
   vertex -0.0018348498344421388 -0.029943836212158202 0.0
  endloop
 endfacet
 facet normal 0.0 0.0 -1.0
  outer loop
   vertex 0.01673065948486328 0.024901506423950195 0.0
   vertex 0.020554250717163085 0.021852293014526368 0.0
   vertex 0.022267023086547853 0.020104219436645508 0.0
  endloop
 endfacet
 facet normal 0.0 0.0 -1.0
  outer loop
   vertex -0.009037385940551758 -0.028606391906738284 0.0
   vertex 0.0006119561195373535 -0.029993757247924805 0.0
   vertex -0.006675628185272217 -0.029247837066650392 0.0
  endloop
 endfacet
 facet normal 0.0 0.0 -1.0
  outer loop
   vertex 0.014645286560058594 -0.02618235206604004 0.0
   vertex 0.029105579376220703 -0.007270852088928223 0.0
   vertex 0.023831611633300782 -0.018222354888916017 0.0
  endloop
 endfacet
 facet normal 0.0 0.0 -1.0
  outer loop
   vertex 0.023831611633300782 -0.018222354888916017 0.0
   vertex 0.029105579376220703 -0.007270852088928223 0.0
   vertex 0.027537498474121094 -0.011903202056884766 0.0
  endloop
 endfacet
 facet normal 0.0 0.0 -1.0
  outer loop
   vertex -0.029975034713745116 0.0012236576080322265 0.0
   vertex -0.029775554656982423 0.003662829399108887 0.0
   vertex -0.029975034713745116 -0.0012236576080322265 0.0
  endloop
 endfacet
 facet normal 0.0 0.0 -1.0
  outer loop
   vertex 0.027537498474121094 -0.011903202056884766 0.0
   vertex 0.029105579376220703 -0.007270852088928223 0.0
   vertex 0.02841609001159668 -0.009619033813476563 0.0
  endloop
 endfacet
 facet normal 0.0 -0.0 -1.0
  outer loop
   vertex -0.009037385940551758 0.028606391906738284 0.0
   vertex -0.006675628185272217 0.029247837066650392 0.0
   vertex -0.011339000701904297 0.02777457618713379 0.0
  endloop
 endfacet
 facet normal 0.0 -0.0 -1.0
  outer loop
   vertex -0.029775554656982423 0.003662829399108887 0.0
   vertex -0.0287847900390625 0.008451976776123048 0.0
   vertex -0.029975034713745116 -0.0012236576080322265 0.0
  endloop
 endfacet
 facet normal 0.0 -0.0 -1.0
  outer loop
   vertex -0.029377923965454102 0.006077625751495361 0.0
   vertex -0.0287847900390625 0.008451976776123048 0.0
   vertex -0.029775554656982423 0.003662829399108887 0.0
  endloop
 endfacet
 facet normal 0.0 0.0 -1.0
  outer loop
   vertex 0.029105579376220703 -0.007270852088928223 0.0
   vertex 0.029900177001953125 -0.0024452784061431885 0.0
   vertex 0.029601373672485352 -0.004874284267425537 0.0
  endloop
 endfacet
 facet normal 0.0 -0.0 -1.0
  outer loop
   vertex -0.004269444942474366 0.029694643020629883 0.0
   vertex -0.0018348498344421388 0.029943836212158202 0.0
   vertex -0.006675628185272217 0.029247837066650392 0.0
  endloop
 endfacet
 facet normal 0.0 0.0 -1.0
  outer loop
   vertex 0.0006119561195373535 -0.029993757247924805 0.0
   vertex 0.01019667911529541 -0.02821396255493164 0.0
   vertex 0.003054689645767212 -0.02984407615661621 0.0
  endloop
 endfacet
 facet normal 0.0 -0.0 -1.0
  outer loop
   vertex -0.011339000701904297 0.02777457618713379 0.0
   vertex -0.0018348498344421388 0.029943836212158202 0.0
   vertex -0.013565156936645508 0.026757925033569337 0.0
  endloop
 endfacet
 facet normal 0.0 0.0 -1.0
  outer loop
   vertex 0.003054689645767212 -0.02984407615661621 0.0
   vertex 0.01019667911529541 -0.02821396255493164 0.0
   vertex 0.005477094650268555 -0.029495786666870118 0.0
  endloop
 endfacet
 facet normal 0.0 0.0 -1.0
  outer loop
   vertex 0.005477094650268555 -0.029495786666870118 0.0
   vertex 0.01019667911529541 -0.02821396255493164 0.0
   vertex 0.007863050460815429 -0.028951208114624025 0.0
  endloop
 endfacet
 facet normal 0.0 -0.0 -1.0
  outer loop
   vertex -0.006675628185272217 0.029247837066650392 0.0
   vertex -0.0018348498344421388 0.029943836212158202 0.0
   vertex -0.011339000701904297 0.02777457618713379 0.0
  endloop
 endfacet
 facet normal 0.0 0.0 -1.0
  outer loop
   vertex 0.029105579376220703 -0.007270852088928223 0.0
   vertex 0.03 -7.000000131271574e-18 0.0
   vertex 0.029900177001953125 -0.0024452784061431885 0.0
  endloop
 endfacet
endsolid patch_2_0
